<svg width="375" height="667" viewBox="0 0 375 667" fill="none" xmlns="http://www.w3.org/2000/svg">
<rect width="375" height="667" fill="white"/>
<path opacity="0.2" d="M138.643 461.551C159.661 461.551 176.699 444.513 176.699 423.495C176.699 402.478 159.661 385.44 138.643 385.44C117.626 385.44 100.587 402.478 100.587 423.495C100.587 444.513 117.626 461.551 138.643 461.551Z" fill="#38277A"/>
<path opacity="0.1" d="M200.688 638.166H76.5992L100.272 536.816L107.268 506.866L123.648 436.736H153.639L170.018 506.866L177.015 536.816L200.688 638.166Z" fill="#38277A"/>
<path opacity="0.2" d="M282.351 492.442C288.164 492.444 293.846 494.169 298.679 497.399C303.511 500.63 307.278 505.22 309.501 510.591C311.725 515.962 312.306 521.872 311.171 527.573C310.036 533.274 307.236 538.51 303.125 542.62C299.015 546.73 293.777 549.529 288.076 550.662C282.375 551.796 276.465 551.213 271.095 548.989C265.725 546.764 261.135 542.997 257.905 538.163C254.676 533.33 252.952 527.647 252.952 521.834C252.961 514.041 256.062 506.569 261.573 501.059C267.085 495.548 274.557 492.449 282.351 492.442ZM282.351 465.557C271.221 465.557 260.34 468.858 251.085 475.042C241.83 481.225 234.617 490.015 230.358 500.298C226.098 510.581 224.984 521.897 227.155 532.814C229.327 543.73 234.687 553.758 242.557 561.629C250.428 569.499 260.455 574.859 271.372 577.03C282.289 579.202 293.604 578.087 303.888 573.828C314.171 569.568 322.96 562.355 329.144 553.1C335.328 543.846 338.628 532.965 338.628 521.834C338.627 506.909 332.697 492.596 322.143 482.042C311.59 471.489 297.276 465.559 282.351 465.557Z" fill="#6548DA"/>
<circle cx="187.14" cy="114.937" r="353.063" fill="url(#paint0_linear_9_1959)"/>
<defs>
<linearGradient id="paint0_linear_9_1959" x1="187.14" y1="-215" x2="187.14" y2="494" gradientUnits="userSpaceOnUse">
<stop stop-color="#301CC7"/>
<stop offset="1" stop-color="#5A45E3"/>
</linearGradient>
</defs>
</svg>
