<svg width="375" height="376" viewBox="0 0 375 376" fill="none" xmlns="http://www.w3.org/2000/svg">
<g opacity="0.5">
<path d="M375.528 286.869H375.535C382.555 286.869 388.245 281.178 388.245 274.159V151.354C388.245 144.335 382.555 138.644 375.535 138.644H375.528C368.509 138.644 362.818 144.335 362.818 151.354V274.159C362.818 281.178 368.509 286.869 375.528 286.869Z" fill="#DCE2E5"/>
<path d="M339.059 248.43C334.014 248.43 329.924 252.519 329.924 257.564C329.924 262.608 334.014 266.698 339.059 266.698H374.083C379.128 266.698 383.217 262.608 383.217 257.564C383.217 252.519 379.128 248.43 374.083 248.43H339.059Z" fill="#DCE2E5"/>
<path d="M353.126 222.062C348.082 222.062 343.992 226.152 343.992 231.196C343.992 236.241 348.082 240.331 353.126 240.331H377.457C382.502 240.331 386.592 236.241 386.592 231.196C386.592 226.152 382.502 222.062 377.457 222.062H353.126Z" fill="#DCE2E5"/>
<path d="M375.528 85.9494C380.724 85.948 385.803 87.4874 390.123 90.3728C394.444 93.2583 397.811 97.3601 399.8 102.16C401.79 106.959 402.311 112.241 401.298 117.336C400.285 122.432 397.784 127.113 394.111 130.787C390.438 134.461 385.757 136.964 380.662 137.978C375.566 138.992 370.285 138.472 365.485 136.484C360.685 134.496 356.582 131.13 353.696 126.81C350.809 122.49 349.268 117.411 349.268 112.216C349.275 105.253 352.044 98.5772 356.967 93.653C361.89 88.7287 368.565 85.9583 375.528 85.9494ZM375.528 64.4413C366.079 64.4413 356.843 67.2432 348.986 72.4928C341.13 77.7423 335.006 85.2038 331.39 93.9335C327.774 102.663 326.828 112.269 328.671 121.537C330.515 130.804 335.065 139.317 341.746 145.998C348.428 152.68 356.94 157.23 366.208 159.073C375.475 160.916 385.081 159.97 393.811 156.354C402.541 152.738 410.002 146.615 415.252 138.758C420.501 130.902 423.303 121.665 423.303 112.216C423.303 99.5454 418.27 87.3937 409.31 78.4342C400.351 69.4747 388.199 64.4413 375.528 64.4413Z" fill="#DCE2E5"/>
<path d="M195.085 95.5401C205.571 95.5401 214.072 87.039 214.072 76.5524C214.072 66.0659 205.571 57.5648 195.085 57.5648C184.598 57.5648 176.097 66.0659 176.097 76.5524C176.097 87.039 184.598 95.5401 195.085 95.5401Z" stroke="#E9EEF2" stroke-width="10" stroke-miterlimit="10"/>
<path d="M208.07 90.4185L238.941 121.5" stroke="#E9EEF2" stroke-width="10" stroke-miterlimit="10"/>
<path d="M234.7 118.863L243.182 110.757" stroke="#E9EEF2" stroke-width="10" stroke-miterlimit="10"/>
<path d="M226.352 109.231L233.53 102.416" stroke="#E9EEF2" stroke-width="10" stroke-miterlimit="10"/>
<path d="M294.36 328.166L331.699 365.5" stroke="white" stroke-width="10" stroke-miterlimit="10"/>
<path d="M-20.0793 138.439L38.2614 196.773" stroke="white" stroke-width="10" stroke-miterlimit="10"/>
<path d="M-10.0793 351.531L10 371.608" stroke="white" stroke-width="10" stroke-miterlimit="10"/>
<path d="M274.06 147.325L217.4 203.985" stroke="white" stroke-width="10" stroke-miterlimit="10"/>
<path d="M44.0764 31.333L62.7456 50" stroke="white" stroke-width="10" stroke-miterlimit="10"/>
<path d="M289.224 13.2665C296.474 13.2665 302.351 7.3893 302.351 0.139433C302.351 -7.11043 296.474 -12.9876 289.224 -12.9876C281.974 -12.9876 276.097 -7.11043 276.097 0.139433C276.097 7.3893 281.974 13.2665 289.224 13.2665Z" stroke="#E9EEF2" stroke-width="10" stroke-miterlimit="10"/>
</g>
</svg>
